<svg xmlns="http://www.w3.org/2000/svg" id="Layer_1" x="0" y="0" version="1.1" viewBox="0 0 256 256" xml:space="preserve">
  <style>
    .st1{fill:#fff}.st2{fill:#06f4e4}
  </style>
  <path fill="#1405ff" d="M0 0h256v256H0z"/>
  <path d="M80.2 161.1l-8.6-27.8H66l-9 28.3-7.7-28.3H41l11.8 40.2h6.9l9-28.3 8.6 28.3h6.8L96 133.3h-8.1z" class="st1"/>
  <path d="M132.5 133.3c.4 1.3.5 2.7.5 4.2 0 3.8-1.3 7-3.8 9.6-2.5 2.6-5.7 3.9-9.4 3.9s-6.8-1.3-9.3-3.9c-2.5-2.6-3.8-5.8-3.8-9.6 0-1.5.2-2.9.5-4.2h-7.8c-.2 1.3-.4 2.8-.4 4.2 0 5.7 2 10.7 6 14.7 4 4.1 8.9 6.1 14.6 6.1 5.8 0 10.7-2 14.8-6.1 4.1-4.1 6.2-9 6.2-14.8 0-1.4-.1-2.8-.4-4.2h-7.7z" class="st1"/>
  <path d="M209.6 138.8c-3.6-3.7-7.9-5.5-12.8-5.5h-15.1v40.2H198c4.9 0 9-2 12.2-5.9 3.2-3.9 4.8-8.8 4.8-14.7 0-5.7-1.8-10.4-5.4-14.1zm-3.5 20.9c-.7 1.8-1.5 3.3-2.6 4.3s-2.2 1.8-3.4 2.4c-1.2.5-2.3.8-3.5.8h-7.4v-27.4h7.5c1.1 0 2.1.2 3.2.7 1.1.4 2.2 1.1 3.3 2.1 1.1 1 2.1 2.4 2.8 4.3.7 1.9 1.1 4.1 1.1 6.7-.1 2.2-.4 4.2-1 6.1z" class="st1"/>
  <path d="M119.9 164.5c-5.8 0-10.7 2-14.7 6-.9.9-1.7 1.9-2.4 2.9h10.6c1.9-1.1 4.1-1.6 6.6-1.6 2.4 0 4.6.5 6.5 1.6h10.7c-.7-1-1.5-1.9-2.4-2.9-4.2-4-9.1-6-14.9-6z" class="st1"/>
  <path d="M162.4 133.3l3.5 5h9.4l-3.8-5z" class="st1"/>
  <path d="M146.4 133.3h7.5v5h-7.5z" class="st1"/>
  <path d="M161.5 146.2h-13.9v27.3h7.5v-4.3l3 4.3h8.7l-3.1-4.1c2.8-.6 5.1-1.8 7-3.7 1.9-1.9 2.8-4.4 2.8-7.4 0-3.6-1.2-6.5-3.5-8.7-2.2-2.3-5.1-3.4-8.5-3.4zm2.4 16.8c-1.2 1.1-2.5 1.6-4 1.6h-4.7v-12.2h4c1.9 0 3.4.5 4.6 1.4 1.2.9 1.8 2.4 1.8 4.5.1 2.1-.5 3.7-1.7 4.7z" class="st1"/>
  <path d="M77.7 113.8c-.6-.4-1.3-.5-1.9-.3-.7.2-1.2.5-1.6 1.1-.4.6-.5 1.3-.3 1.9.2.7.5 1.2 1.1 1.6.6.4 1.3.5 1.9.3.7-.2 1.2-.5 1.6-1.1.4-.6.5-1.2.3-1.9s-.5-1.2-1.1-1.6z" class="st2"/>
  <path d="M69.7 102.7c-.2-.9-.1-1.8.4-2.6s1.2-1.3 2.3-1.5c1-.2 1.8 0 2.6.5.8.6 1.3 1.3 1.5 2.3.2 1 .1 1.9-.5 2.7-.6.8-1.4 1.3-2.6 1.6l-1.6.4 1.3 5.9 4.1-.9-.6-2.8c1.6-.6 2.8-1.6 3.6-3 .7-1.5.9-3.2.5-5.1-.5-2-1.6-3.5-3.4-4.4-1.8-1-3.8-1.2-6-.7-2.1.5-3.7 1.6-4.8 3.4-1.1 1.8-1.4 3.6-1 5.3l4.2-1.1z" class="st2"/>
  <path d="M171 105.2c.6.3 1.3.3 2 .1.7-.2 1.2-.7 1.5-1.3.3-.6.3-1.3.1-2-.2-.7-.7-1.2-1.3-1.5-.6-.3-1.3-.3-2-.1-.7.2-1.2.7-1.5 1.3-.3.6-.3 1.3-.1 1.9.2.8.7 1.3 1.3 1.6z" class="st2"/>
  <path d="M185.5 93.2c.9-1.8.9-3.7.1-5.6-.8-1.9-2.2-3.3-4.2-4.3s-3.9-1.1-5.9-.3c-2 .7-3.3 1.9-4.1 3.5l3.9 1.9c.4-.9 1.1-1.5 1.9-1.8.9-.3 1.8-.2 2.7.2.9.4 1.5 1.1 1.7 2 .3.9.2 1.8-.3 2.7-.4.9-1.1 1.5-2.1 1.8-.9.3-1.9.1-3-.4l-1.5-.7-2.6 5.5 3.8 1.8 1.3-2.6c1.6.6 3.2.5 4.7-.1 1.5-.5 2.7-1.8 3.6-3.6z" class="st2"/>
</svg>
